<?xml version="1.0" standalone="no"?><!DOCTYPE svg PUBLIC "-//W3C//DTD SVG 1.1//EN" "http://www.w3.org/Graphics/SVG/1.1/DTD/svg11.dtd"><svg t="1545633973879" class="icon" style="" viewBox="0 0 1024 1024" version="1.1" xmlns="http://www.w3.org/2000/svg" p-id="753" xmlns:xlink="http://www.w3.org/1999/xlink" width="200" height="200"><defs><style type="text/css"></style></defs><path d="M512 953.33559c-57.304124 0-113.173572-10.873652-166.057013-32.31908-54.769394-22.209838-103.896278-54.826699-146.014538-96.944959-42.11826-42.11826-74.735122-91.245144-96.944959-146.014538-21.445428-52.883441-32.31908-108.75289-32.31908-166.057013s10.873652-113.173572 32.31908-166.057013c22.210861-54.769394 54.827723-103.896278 96.944959-146.014538 42.11826-42.11826 91.245144-74.735122 146.014538-96.944959 52.883441-21.445428 108.75289-32.31908 166.057013-32.31908 57.304124 0 113.173572 10.872628 166.057013 32.31908 54.769394 22.209838 103.895255 54.827723 146.013515 96.945983 42.11826 42.11826 74.735122 91.24412 96.944959 146.013515 21.445428 52.883441 32.31908 108.75289 32.31908 166.057013s-10.873652 113.173572-32.31908 166.057013c-22.209838 54.769394-54.826699 103.896278-96.944959 146.014538s-91.24412 74.735122-146.013515 96.944959C625.173572 942.461939 569.304124 953.33559 512 953.33559zM512 142.295843c-98.751095 0-191.592596 38.455847-261.420965 108.283192-69.827345 69.828368-108.283192 162.668847-108.283192 261.419941s38.455847 191.592596 108.283192 261.419941C320.407404 843.24831 413.247882 881.704157 512 881.704157c98.752118 0 191.592596-38.455847 261.419941-108.284215 69.828368-69.827345 108.284215-162.668847 108.284215-261.419941s-38.455847-191.592596-108.284215-261.419941C703.591573 180.75169 610.752118 142.295843 512 142.295843zM681.151491 393.499096l-50.65161-50.650587L512 461.34839 393.500119 342.848509l-50.65161 50.650587 118.499881 118.499881L342.848509 630.499881l50.65161 50.65161 118.499881-118.499881 118.499881 118.499881 50.65161-50.65161L562.65161 512 681.151491 393.499096z" p-id="754"></path></svg>