<?xml version="1.0" standalone="no"?><!DOCTYPE svg PUBLIC "-//W3C//DTD SVG 1.1//EN" "http://www.w3.org/Graphics/SVG/1.1/DTD/svg11.dtd"><svg t="1546783966497" class="icon" style="" viewBox="0 0 1024 1024" version="1.1" xmlns="http://www.w3.org/2000/svg" p-id="754" xmlns:xlink="http://www.w3.org/1999/xlink" width="200" height="200"><defs><style type="text/css"></style></defs><path d="M717.266 315.093L9.433 1023H1022V10.447L717.266 315.093z m195.057 304.176L679.769 861.333c-0.088 0.087-0.177 0.087-0.177 0.204-0.117 0-0.117 0.206-0.234 0.206-1.877 1.877-4.048 3.051-6.308 4.342-1.086 0.587-1.878 1.467-3.082 1.966-3.462 1.497-7.1 2.171-10.855 2.171s-7.423-0.674-10.973-2.171c-1.115-0.499-1.996-1.379-3.081-1.966-2.171-1.291-4.461-2.465-6.338-4.46-0.088 0-0.088-0.205-0.206-0.205-0.058-0.087-0.175-0.087-0.175-0.177L524.027 740.007c-11.179-11.765-10.975-30.748 0.587-42.221 11.472-11.502 29.752-11.268 41.048 0.586l93.744 99.173 211.605-220.408c11.267-11.767 29.664-11.767 41.02-0.206 11.384 11.589 11.501 30.485 0.292 42.338z m0 0" p-id="755"></path></svg>